<svg id="SvgjsSvg1011" width="288" height="288" xmlns="http://www.w3.org/2000/svg" version="1.1" xmlns:xlink="http://www.w3.org/1999/xlink" xmlns:svgjs="http://svgjs.com/svgjs"><defs id="SvgjsDefs1012"></defs><g id="SvgjsG1013" transform="matrix(1,0,0,1,0,0)"><svg xmlns="http://www.w3.org/2000/svg" width="288" height="288" viewBox="0 0 32 32"><g transform="translate(-107 -759.527)" fill="#4a4a4a" class="color000 svgShape"><path style="line-height:normal;text-indent:0;text-align:start;text-decoration-line:none;text-decoration-style:solid;text-decoration-color:#000;text-transform:none;block-progression:tb;isolation:auto;mix-blend-mode:normal" fill="#4a4a4a" d="m 111.5,766.52734 a 0.50005,0.50005 0 0 0 -0.5,0.5 l 0,15 a 0.50005,0.50005 0 0 0 0.5,0.5 l 24,0 a 0.50005,0.50005 0 0 0 0.5,-0.5 l 0,-15 a 0.50005,0.50005 0 0 0 -0.5,-0.5 l -24,0 z m 0.5,1 23,0 0,14 -23,0 0,-14 z" color="#000" font-family="sans-serif" font-weight="400" overflow="visible" class="color2b4255 svgShape"></path><path style="line-height:normal;text-indent:0;text-align:start;text-decoration-line:none;text-decoration-style:solid;text-decoration-color:#000;text-transform:none;block-progression:tb;isolation:auto;mix-blend-mode:normal" fill="#4a4a4a" d="m 109.5,781.52734 a 0.50005,0.50005 0 0 0 -0.5,0.5 c 0,1.40855 1.25967,2.5 2.74023,2.5 l 23.51954,0 c 1.48056,0 2.74023,-1.09145 2.74023,-2.5 a 0.50005,0.50005 0 0 0 -0.5,-0.5 l -28,0 z m 0.73438,1 26.53124,0 c -0.247,0.54931 -0.74223,1 -1.50585,1 l -23.51954,0 c -0.76362,0 -1.25885,-0.45069 -1.50585,-1 z" color="#000" font-family="sans-serif" font-weight="400" overflow="visible" class="color2b4255 svgShape"></path><path style="line-height:normal;text-indent:0;text-align:start;text-decoration-line:none;text-decoration-style:solid;text-decoration-color:#000;text-transform:none;block-progression:tb;isolation:auto;mix-blend-mode:normal" fill="#00d1b2" d="m 118.00391,769.53711 0,1 0.5,0 0.70312,0 0.5,0 0,-1 -0.5,0 -0.70312,0 -0.5,0 z m 1.72656,0.99023 0,1 0.5,0 6.57617,0 -0.97266,3 -4.80468,0 -0.5,0 0,1 0.5,0 5.16797,0 a 0.50005,0.50005 0 0 0 0.47461,-0.3457 l 1.29882,-4 a 0.50005,0.50005 0 0 0 -0.47461,-0.6543 l -7.26562,0 -0.5,0 z" color="#000" font-family="sans-serif" font-weight="400" overflow="visible" class="colorf05542 svgShape"></path><path style="line-height:normal;text-indent:0;text-align:start;text-decoration-line:none;text-decoration-style:solid;text-decoration-color:#000;text-transform:none;block-progression:tb;isolation:auto;mix-blend-mode:normal" fill="#00d1b2" d="m 119.63672,769.52929 a 0.50005,0.50005 0 0 0 -0.45899,0.62305 l 1.68165,6.99805 a 0.50005,0.50005 0 0 0 0.48632,0.38281 l 4.1543,0 a 0.50005,0.50005 0 1 0 0,-1 l -3.75977,0 -1.58984,-6.61328 a 0.50005,0.50005 0 0 0 -0.51367,-0.39063 z" color="#000" font-family="sans-serif" font-weight="400" overflow="visible" class="colorf05542 svgShape"></path><path style="line-height:normal;text-indent:0;text-align:start;text-decoration-line:none;text-decoration-style:solid;text-decoration-color:#000;text-transform:none;block-progression:tb;isolation:auto;mix-blend-mode:normal" fill="#00d1b2" d="M121.46094 776.52929c-.82208 0-1.49805.67792-1.49805 1.5 0 .82209.67597 1.49805 1.49805 1.49805.82208 0 1.5-.67596 1.5-1.49805 0-.82208-.67792-1.5-1.5-1.5zm0 1c.28137 0 .5.21809.5.5 0 .28191-.21863.49805-.5.49805-.28137 0-.49805-.21614-.49805-.49805 0-.28191.21668-.5.49805-.5zM125.41797 776.52929c-.82208 0-1.5.67792-1.5 1.5 0 .82209.67792 1.49805 1.5 1.49805.82208 0 1.49805-.67596 1.49805-1.49805 0-.82208-.67597-1.5-1.49805-1.5zm0 1c.28137 0 .49805.21809.49805.5 0 .28191-.21668.49805-.49805.49805-.28137 0-.5-.21614-.5-.49805 0-.28191.21863-.5.5-.5z" color="#000" font-family="sans-serif" font-weight="400" overflow="visible" class="colorf05542 svgShape"></path><path style="line-height:normal;text-indent:0;text-align:start;text-decoration-line:none;text-decoration-style:solid;text-decoration-color:#000;text-transform:none;block-progression:tb;isolation:auto;mix-blend-mode:normal" fill="#00d1b2" fill-rule="evenodd" d="m 123.35938,772.52734 0,1 3.5957,0 0,-1 -3.5957,0 z" color="#000" font-family="sans-serif" font-weight="400" overflow="visible" class="colorf05542 svgShape"></path></g></svg></g></svg>